<svg xmlns="http://www.w3.org/2000/svg" width="640" height="400" viewBox="0 0 640 400">
  <defs>
    <linearGradient id="bg" x1="0%" y1="0%" x2="100%" y2="100%">
      <stop offset="0%" stop-color="#161221"/>
      <stop offset="100%" stop-color="#1f1830"/>
    </linearGradient>
    <linearGradient id="accent" x1="0%" y1="0%" x2="100%" y2="0%">
      <stop offset="0%" stop-color="#25f4ee"/>
      <stop offset="50%" stop-color="#fe2c55"/>
      <stop offset="100%" stop-color="#25f4ee"/>
    </linearGradient>
  </defs>
  <rect width="640" height="400" fill="url(#bg)"/>
  <rect x="24" y="24" width="592" height="352" rx="20" fill="#0f0c17" stroke="#3a3350" stroke-width="2"/>

  <!-- phone mockup -->
  <rect x="60" y="60" width="150" height="280" rx="18" fill="#1a1626" stroke="#fe2c55" stroke-width="2"/>
  <rect x="72" y="80" width="126" height="126" rx="63" fill="#25f4ee" opacity="0.15"/>
  <circle cx="135" cy="106" r="24" fill="#25f4ee" opacity="0.5"/>
  <rect x="80" y="150" width="110" height="10" rx="5" fill="#fe2c55" opacity="0.7"/>
  <rect x="80" y="168" width="80" height="8" rx="4" fill="#ffffff" opacity="0.5"/>
  <rect x="80" y="184" width="95" height="8" rx="4" fill="#ffffff" opacity="0.35"/>

  <text x="420" y="140" text-anchor="middle" fill="#ffffff" font-family="Georgia, serif" font-size="40" font-weight="700">TikTok</text>
  <text x="420" y="172" text-anchor="middle" fill="#c9c3dd" font-family="monospace" font-size="13" letter-spacing="1">Fonts for Bio · Username · Comments</text>

  <rect x="330" y="200" width="180" height="38" rx="10" fill="#25f4ee" opacity="0.12" stroke="#25f4ee" stroke-width="1.5"/>
  <text x="420" y="224" text-anchor="middle" fill="#25f4ee" font-family="monospace" font-size="12" letter-spacing="1">COPY PASTE READY</text>

  <rect x="330" y="250" width="56" height="34" rx="9" fill="#fe2c55" opacity="0.12" stroke="#fe2c55" stroke-width="1"/>
  <text x="358" y="272" text-anchor="middle" fill="#fe2c55" font-size="16">🎵</text>
  <rect x="394" y="250" width="56" height="34" rx="9" fill="#25f4ee" opacity="0.12" stroke="#25f4ee" stroke-width="1"/>
  <text x="422" y="272" text-anchor="middle" fill="#25f4ee" font-size="16">📱</text>
  <rect x="458" y="250" width="56" height="34" rx="9" fill="#ffffff" opacity="0.1" stroke="#ffffff" stroke-width="1"/>
  <text x="486" y="272" text-anchor="middle" fill="#ffffff" font-size="16">▶️</text>

  <rect x="0" y="376" width="640" height="4" fill="url(#accent)" opacity="0.9"/>
  <text x="330" y="368" text-anchor="middle" fill="#8d86a8" font-family="monospace" font-size="10" letter-spacing="3">TIKTOK FONT GENERATOR</text>
</svg>
