<svg xmlns="http://www.w3.org/2000/svg" width="640" height="400" viewBox="0 0 640 400" role="img" aria-label="Wavy text generator showing the word Hello in multiple Unicode wave font styles">
  <defs>
    <linearGradient id="wbg" x1="0%" y1="0%" x2="100%" y2="100%">
      <stop offset="0%" stop-color="#141210"/>
      <stop offset="100%" stop-color="#0a0908"/>
    </linearGradient>
    <linearGradient id="waccent" x1="0%" y1="0%" x2="100%" y2="0%">
      <stop offset="0%" stop-color="#ff2d95"/>
      <stop offset="50%" stop-color="#c8ff00"/>
      <stop offset="100%" stop-color="#00e8ff"/>
    </linearGradient>
  </defs>
  <rect width="640" height="400" fill="url(#wbg)"/>

  <path d="M0 70 Q40 50 80 70 T160 70 T240 70 T320 70 T400 70 T480 70 T560 70 T640 70" fill="none" stroke="#00e8ff" stroke-width="2" opacity="0.25"/>
  <path d="M0 340 Q40 320 80 340 T160 340 T240 340 T320 340 T400 340 T480 340 T560 340 T640 340" fill="none" stroke="#ff2d95" stroke-width="2" opacity="0.25"/>

  <text x="320" y="60" text-anchor="middle" fill="#6b635a" font-family="monospace" font-size="13" letter-spacing="4">WAVY TEXT GENERATOR</text>

  <text x="320" y="150" text-anchor="middle" fill="#faf6ef" font-family="serif" font-size="62" letter-spacing="3">H¢ll§</text>
  <text x="320" y="225" text-anchor="middle" fill="#00e8ff" font-family="serif" font-size="52" letter-spacing="3">H`e`l`l`o`</text>
  <text x="320" y="295" text-anchor="middle" fill="#c8ff00" font-family="serif" font-size="52" letter-spacing="3">"77/</text>

  <rect x="0" y="380" width="640" height="4" fill="url(#waccent)" opacity="0.75"/>
  <text x="320" y="372" text-anchor="middle" fill="#a89f94" font-family="monospace" font-size="11" letter-spacing="3">COPY PASTE WAVE FONTS</text>
</svg>
